# xmcd
#
# Track frame offsets:
#	150
#	11338
#	25192
#	38459
#	56259
#	76995
#	89555
#	108720
#	122627
#	133400
#	143262
#	158605
#
# Disc length: 2273 seconds
#
# Revision: 1
# Processed by: cddbd v1.5.1PL0 Copyright (c) Steve Scherf et al.
# Submitted via: EasyCDDAExtractor 6.2.0.3
#
DISCID=8b08df0c
DTITLE=Tião Carreiro and Pardinho - Hoje Eu Não Posso Ir
DYEAR=1972
DGENRE=Country
TTITLE0=Empreitada Perigosa
TTITLE1=Amargurado
TTITLE2=Pé De Guerra
TTITLE3=Boiadeiro De Palavra
TTITLE4=Dever De Um Médico
TTITLE5=Filhinho De Papai
TTITLE6=Hoje Eu Não Posso Ir
TTITLE7=Linda Bancária
TTITLE8=Caminho Do Céu
TTITLE9=O Preço Da Glória
TTITLE10=Ara Pó
TTITLE11=Esta Vida É Um Punhal
EXTD=by Flávio Abrahão Biasuz
EXTT0=
EXTT1=
EXTT2=
EXTT3=
EXTT4=
EXTT5=
EXTT6=
EXTT7=
EXTT8=
EXTT9=
EXTT10=
EXTT11=
PLAYORDER=
